Coordinates
version=1
nRows=40
nColumns=38
inDegrees=no

Units are S.I. units (second, meters, Newtons, ...)
If the header above contains a line with 'inDegrees', this indicates whether rotational values are in degrees (yes) or radians (no).

endheader
time	pelvis_tilt	pelvis_list	pelvis_rotation	pelvis_tx	pelvis_ty	pelvis_tz	hip_flexion_r	hip_adduction_r	hip_rotation_r	knee_angle_r	ankle_angle_r	subtalar_angle_r	mtp_angle_r	hip_flexion_l	hip_adduction_l	hip_rotation_l	knee_angle_l	ankle_angle_l	subtalar_angle_l	mtp_angle_l	lumbar_extension	lumbar_bending	lumbar_rotation	arm_flex_r	arm_add_r	arm_rot_r	elbow_flex_r	pro_sup_r	wrist_flex_r	wrist_dev_r	arm_flex_l	arm_add_l	arm_rot_l	elbow_flex_l	pro_sup_l	wrist_flex_l	wrist_dev_l
1.94	-0.313903	-0.0462461	-0.0797771	1.00348	0.976257	-0.347851	0.526742	0.190543	0.183556	-0.723315	0.447818	0	0	0.854207	-0.181178	-0.102229	-1.47857	0.105889	0	0	0.0579456	0.112223	0.217072	-0.284415	-0.304826	-0.125597	1.74432	1.89323	0	0	-0.520532	-0.207387	0.0338451	1.76279	1.75902	0	0
1.95	-0.319333	-0.0400976	-0.0768274	1.00453	0.982002	-0.34829	0.492004	0.178606	0.189523	-0.690009	0.426191	0	0	0.869683	-0.172973	-0.108655	-1.436	0.113226	0	0	0.0678095	0.1017	0.227654	-0.280279	-0.301491	-0.113517	1.78686	1.89496	0	0	-0.543994	-0.214268	0.0231624	1.79698	1.75734	0	0
1.96	-0.324086	-0.0349602	-0.0729614	1.00573	0.988332	-0.348742	0.458292	0.167397	0.193578	-0.658436	0.395824	0	0	0.881362	-0.167941	-0.118823	-1.38782	0.120811	0	0	0.0767254	0.0918871	0.236301	-0.277377	-0.297793	-0.101694	1.82868	1.9042	0	0	-0.566307	-0.220024	0.0107708	1.83054	1.76117	0	0
1.97	-0.328151	-0.0298566	-0.0674872	1.00698	0.995066	-0.349165	0.424869	0.155765	0.19542	-0.626807	0.35559	0	0	0.88834	-0.163559	-0.132617	-1.33259	0.129313	0	0	0.0841772	0.081276	0.241827	-0.274768	-0.293476	-0.0894199	1.8702	1.91733	0	0	-0.587848	-0.224905	-0.00381798	1.86441	1.76884	0	0
1.98	-0.331224	-0.0246149	-0.0601533	1.00821	1.0021	-0.349598	0.392043	0.14344	0.194135	-0.595924	0.306581	0	0	0.889994	-0.157533	-0.148646	-1.2698	0.138737	0	0	0.0894406	0.0697521	0.243983	-0.272054	-0.288836	-0.0766658	1.91101	1.93936	0	0	-0.607959	-0.228541	-0.0202713	1.89722	1.78226	0	0
1.99	-0.335851	-0.0210877	-0.0530719	1.00919	1.00902	-0.34999	0.365952	0.133602	0.190258	-0.57236	0.259228	0	0	0.893414	-0.148698	-0.159319	-1.20553	0.144319	0	0	0.0954073	0.0605622	0.245762	-0.270946	-0.284942	-0.0638583	1.94976	1.95071	0	0	-0.625219	-0.230875	-0.0344664	1.92544	1.78462	0	0
2	-0.340276	-0.01722	-0.0462759	1.01034	1.0158	-0.350538	0.341501	0.122989	0.183887	-0.550616	0.208132	0	0	0.89229	-0.13625	-0.168836	-1.13477	0.149251	0	0	0.100735	0.0513198	0.246758	-0.271338	-0.281813	-0.0504742	1.9875	1.96516	0	0	-0.640906	-0.231438	-0.0487202	1.951	1.78547	0	0
2.01	-0.344283	-0.0126244	-0.0396737	1.01169	1.0223	-0.351319	0.318305	0.111082	0.174657	-0.530649	0.153325	0	0	0.886069	-0.118666	-0.174952	-1.05692	0.152567	0	0	0.105379	0.0417149	0.247065	-0.27332	-0.279372	-0.0368538	2.02388	1.98633	0	0	-0.654736	-0.230105	-0.0630211	1.97375	1.78183	0	0
2.02	-0.350204	-0.00963232	-0.0357958	1.01289	1.02805	-0.351961	0.301404	0.102706	0.16739	-0.517741	0.105232	0	0	0.883073	-0.101369	-0.175954	-0.981513	0.151925	0	0	0.111824	0.0349116	0.249607	-0.277428	-0.277757	-0.0245543	2.05752	2.004	0	0	-0.665909	-0.227279	-0.0760236	1.99287	1.7797	0	0
2.03	-0.355496	-0.00613304	-0.0297217	1.01411	1.03329	-0.352811	0.285464	0.0933035	0.156858	-0.506437	0.0533802	0	0	0.874093	-0.0765936	-0.166565	-0.896955	0.1491	0	0	0.117301	0.0272442	0.24856	-0.281674	-0.276451	-0.011195	2.08789	2.01875	0	0	-0.675126	-0.22284	-0.0902513	2.01043	1.77021	0	0
2.04	-0.356772	-0.00445565	-0.0235851	1.01534	1.03803	-0.353564	0.26811	0.086465	0.14564	-0.499961	0.00980821	0	0	0.860728	-0.0508459	-0.146601	-0.813732	0.145855	0	0	0.117361	0.0213253	0.24631	-0.284874	-0.276288	0.00310757	2.11232	1.99808	0	0	-0.680597	-0.216976	-0.104252	2.02587	1.76651	0	0
2.05	-0.367743	-0.00451334	-0.0211778	1.01598	1.04111	-0.353953	0.268274	0.0851707	0.14352	-0.505367	-0.0327347	0	0	0.856691	-0.0311407	-0.125593	-0.731225	0.142319	0	0	0.129581	0.0183581	0.246536	-0.290783	-0.276185	0.0153182	2.13062	2.00134	0	0	-0.686736	-0.210494	-0.117765	2.04018	1.7608	0	0
2.06	-0.372639	-0.00548775	-0.0172166	1.01686	1.04374	-0.35451	0.26454	0.0844547	0.139552	-0.515602	-0.0686912	0	0	0.84361	-0.0103961	-0.0949563	-0.648278	0.141598	0	0	0.134616	0.0157984	0.244066	-0.294769	-0.27713	0.0289991	2.14124	1.98328	0	0	-0.689494	-0.203064	-0.130495	2.05308	1.7593	0	0
2.07	-0.372677	-0.00737091	-0.0137517	1.01798	1.04577	-0.355106	0.25798	0.0847788	0.135101	-0.530619	-0.0955197	0	0	0.82546	0.0055021	-0.0673233	-0.571089	0.143636	0	0	0.134089	0.0143928	0.241682	-0.298299	-0.278656	0.0417523	2.14582	1.96798	0	0	-0.688892	-0.195509	-0.140975	2.06453	1.75951	0	0
2.08	-0.380134	-0.00923812	-0.0132031	1.01865	1.04624	-0.355506	0.265696	0.0886504	0.141396	-0.557055	-0.120284	0	0	0.814205	0.015495	-0.0469437	-0.497008	0.144174	0	0	0.143381	0.0139174	0.241368	-0.304171	-0.279579	0.0528602	2.14425	1.97155	0	0	-0.688598	-0.188304	-0.150469	2.0747	1.76098	0	0
2.09	-0.380428	-0.0109138	-0.0116426	1.01962	1.04622	-0.35603	0.266441	0.0917454	0.145285	-0.585779	-0.135659	0	0	0.797742	0.022847	-0.0339299	-0.433809	0.145302	0	0	0.144136	0.0129362	0.239762	-0.30939	-0.280148	0.0614492	2.13769	1.96515	0	0	-0.684277	-0.181428	-0.158039	2.08335	1.76345	0	0
2.1	-0.375655	-0.0129885	-0.00918711	1.0208	1.04548	-0.35665	0.262808	0.0948962	0.147089	-0.617443	-0.142431	0	0	0.780588	0.0279835	-0.026023	-0.386108	0.147831	0	0	0.138968	0.0122016	0.236898	-0.314922	-0.27997	0.0654926	2.12673	1.95736	0	0	-0.676537	-0.174988	-0.163512	2.09041	1.76516	0	0
2.11	-0.377172	-0.0156031	-0.0109643	1.02161	1.0432	-0.356983	0.270392	0.101917	0.157477	-0.657542	-0.144409	0	0	0.774523	0.0277023	-0.0268335	-0.35301	0.150506	0	0	0.142122	0.0132851	0.237612	-0.323834	-0.278722	0.0638779	2.11178	1.96488	0	0	-0.668719	-0.169098	-0.167303	2.09564	1.7681	0	0
2.12	-0.374642	-0.0182901	-0.0126479	1.02255	1.0401	-0.357401	0.277833	0.110606	0.168826	-0.706924	-0.136411	0	0	0.764986	0.0266998	-0.0282408	-0.328828	0.157215	0	0	0.140555	0.01461	0.237524	-0.332806	-0.276816	0.0580757	2.09242	1.97056	0	0	-0.658046	-0.163071	-0.170055	2.09919	1.77273	0	0
2.13	-0.36632	-0.0215795	-0.012676	1.02374	1.03639	-0.357969	0.280616	0.1196	0.176593	-0.759311	-0.116791	0	0	0.754082	0.0252438	-0.0293784	-0.321003	0.165723	0	0	0.132023	0.0164795	0.235068	-0.341248	-0.274726	0.0494385	2.0701	1.96293	0	0	-0.644333	-0.157357	-0.17145	2.10053	1.78027	0	0
2.14	-0.365427	-0.0263958	-0.0143386	1.02467	1.03117	-0.358303	0.293683	0.131178	0.184546	-0.813271	-0.0969834	0	0	0.752649	0.0193518	-0.0374296	-0.323293	0.161964	0	0	0.133429	0.0209334	0.232587	-0.352667	-0.272221	0.0384664	2.04591	1.97254	0	0	-0.632245	-0.152324	-0.172133	2.09981	1.78398	0	0
2.15	-0.364341	-0.0306037	-0.0160931	1.02506	1.02473	-0.358431	0.314905	0.144477	0.191416	-0.882433	-0.0693351	0	0	0.755586	0.0115656	-0.053042	-0.341354	0.14235	0	0	0.133711	0.0243237	0.229037	-0.362867	-0.268315	0.024481	2.01711	1.98196	0	0	-0.617996	-0.147692	-0.173535	2.09797	1.79008	0	0
2.16	-0.363718	-0.0346983	-0.0162648	1.02546	1.01741	-0.358685	0.336795	0.154177	0.190441	-0.947713	-0.0469305	0	0	0.763802	0.00526282	-0.0627503	-0.377078	0.114552	0	0	0.135015	0.0273264	0.221409	-0.373154	-0.265324	0.0129514	1.98656	1.9692	0	0	-0.604179	-0.142995	-0.175229	2.09462	1.79621	0	0
2.17	-0.366382	-0.0394866	-0.0184272	1.02563	1.00889	-0.358782	0.365515	0.16345	0.186236	-1.01532	-0.0313556	0	0	0.789188	-0.000923873	-0.0624476	-0.445564	0.100517	0	0	0.140568	0.0316176	0.213775	-0.38482	-0.26303	0.000161943	1.95417	1.98099	0	0	-0.590708	-0.138069	-0.176984	2.08967	1.80534	0	0
2.18	-0.364415	-0.0423345	-0.0182546	1.02549	1.00015	-0.359057	0.392005	0.167234	0.176111	-1.08322	-0.020064	0	0	0.814108	0.000887337	-0.0485939	-0.527617	0.114027	0	0	0.139285	0.0327017	0.202608	-0.393448	-0.261345	-0.0106261	1.91753	1.98028	0	0	-0.573699	-0.133636	-0.178372	2.08229	1.80528	0	0
2.19	-0.358712	-0.0425181	-0.0157584	1.02476	0.99149	-0.359264	0.418081	0.165606	0.162479	-1.15161	-0.0117305	0	0	0.838717	0.00922255	-0.0316628	-0.618253	0.153219	0	0	0.131545	0.0292056	0.188485	-0.39808	-0.258599	-0.020506	1.87527	1.97691	0	0	-0.552172	-0.131422	-0.179235	2.07158	1.80157	0	0
2.2	-0.350948	-0.0401125	-0.0103023	1.0233	0.983324	-0.359306	0.445484	0.159168	0.146758	-1.21908	-0.00432859	0	0	0.858536	0.0209992	-0.0183233	-0.703369	0.201957	0	0	0.119333	0.0211577	0.171318	-0.399092	-0.252858	-0.0319611	1.82641	1.98536	0	0	-0.525647	-0.132946	-0.178354	2.05561	1.7979	0	0
2.21	-0.343238	-0.0360656	-0.00339704	1.02144	0.975952	-0.35923	0.475261	0.149848	0.131558	-1.28329	0.00415227	0	0	0.870308	0.0327383	-0.00952784	-0.773266	0.246404	0	0	0.106362	0.0108007	0.153251	-0.398886	-0.243949	-0.0453216	1.77092	1.98695	0	0	-0.494669	-0.138383	-0.173301	2.03197	1.78877	0	0
2.22	-0.337749	-0.0313192	0.00159065	1.01971	0.96945	-0.359197	0.50827	0.139969	0.120232	-1.3423	0.0151334	0	0	0.874004	0.0421089	-0.00493746	-0.826064	0.283224	0	0	0.0969106	0.000994097	0.138423	-0.400892	-0.233425	-0.0608999	1.71103	1.97741	0	0	-0.460326	-0.146461	-0.162038	1.99922	1.77069	0	0
2.23	-0.334699	-0.0268305	0.00238363	1.01843	0.963877	-0.359398	0.543701	0.13154	0.114437	-1.39469	0.0286603	0	0	0.870591	0.0482807	-0.00429933	-0.864811	0.315801	0	0	0.0919566	-0.00605865	0.129345	-0.406871	-0.223475	-0.0803635	1.65092	1.99061	0	0	-0.423349	-0.155012	-0.145716	1.95807	1.76894	0	0
2.24	-0.333101	-0.021758	-5.39638e-05	1.01749	0.959369	-0.359989	0.580395	0.123213	0.113141	-1.44005	0.0437236	0	0	0.861184	0.0528137	-0.00863236	-0.89268	0.346243	0	0	0.0896415	-0.0115518	0.124224	-0.415679	-0.215621	-0.102807	1.59398	2.04318	0	0	-0.384777	-0.162925	-0.126431	1.91235	1.78195	0	0
2.25	-0.330731	-0.0159676	-0.00281459	1.01666	0.956212	-0.360935	0.615827	0.113885	0.113713	-1.47769	0.0584966	0	0	0.845672	0.0581406	-0.0145885	-0.911796	0.373564	0	0	0.0860977	-0.0168636	0.118354	-0.424526	-0.211564	-0.120188	1.54082	2.06395	0	0	-0.346541	-0.169839	-0.106999	1.86834	1.79335	0	0
2.26	-0.327295	-0.00903881	-0.00483905	1.01581	0.954536	-0.361983	0.649488	0.103485	0.11571	-1.50721	0.0714036	0	0	0.824545	0.0647229	-0.0210485	-0.922278	0.396546	0	0	0.0804432	-0.0232103	0.109632	-0.432605	-0.209723	-0.136211	1.49443	2.11163	0	0	-0.311636	-0.175953	-0.0912518	1.83278	1.81236	0	0
2.27	-0.32343	-0.00186196	-0.00659436	1.01501	0.954312	-0.362922	0.681386	0.0940543	0.119341	-1.528	0.0819448	0	0	0.798114	0.0716677	-0.0263102	-0.923673	0.415399	0	0	0.0739214	-0.0296114	0.0981953	-0.441205	-0.209834	-0.150522	1.45743	2.17736	0	0	-0.283267	-0.181105	-0.0806003	1.811	1.83331	0	0
2.28	-0.320666	0.00336124	-0.0088373	1.01442	0.955319	-0.363686	0.712441	0.0883605	0.123612	-1.53952	0.0905223	0	0	0.768026	0.0769511	-0.0288825	-0.91675	0.430638	0	0	0.069197	-0.0331816	0.0850841	-0.452913	-0.213558	-0.158244	1.43116	2.19013	0	0	-0.263502	-0.184873	-0.0733728	1.80525	1.8357	0	0
2.29	-0.319359	0.00679021	-0.0115937	1.01411	0.957394	-0.364373	0.742558	0.0853036	0.127523	-1.54193	0.098951	0	0	0.735048	0.0797154	-0.0315099	-0.902359	0.442716	0	0	0.0670275	-0.0337107	0.0711976	-0.469614	-0.219718	-0.166856	1.42012	2.22476	0	0	-0.251942	-0.187349	-0.0681718	1.81454	1.82552	0	0
2.3	-0.319314	0.0069645	-0.0140582	1.01408	0.960457	-0.365057	0.771346	0.0846899	0.128299	-1.53521	0.107092	0	0	0.701135	0.079708	-0.0318087	-0.884063	0.448703	0	0	0.0671594	-0.029669	0.0564424	-0.491344	-0.22927	-0.172362	1.42211	2.2264	0	0	-0.246601	-0.188197	-0.0639607	1.83534	1.81901	0	0
2.31	-0.319949	0.00585479	-0.0161005	1.01432	0.964466	-0.365778	0.797697	0.0837554	0.126269	-1.51954	0.11569	0	0	0.666083	0.0787973	-0.0308692	-0.86188	0.448134	0	0	0.0687816	-0.0234456	0.0413037	-0.516632	-0.240458	-0.17722	1.43435	2.21819	0	0	-0.245397	-0.188283	-0.0594924	1.8634	1.81049	0	0
2.32	-0.320889	0.00419886	-0.0184997	1.01482	0.969393	-0.366459	0.820757	0.0826443	0.122752	-1.49498	0.1239	0	0	0.629782	0.077999	-0.0281161	-0.836148	0.438639	0	0	0.0713584	-0.015917	0.0275446	-0.544046	-0.250984	-0.184495	1.45311	2.21775	0	0	-0.246545	-0.187725	-0.0546673	1.89487	1.80385	0	0
2.33	-0.322027	0.00257926	-0.0221	1.01556	0.975116	-0.367053	0.839811	0.0820583	0.119511	-1.46165	0.131712	0	0	0.591884	0.0775744	-0.0242809	-0.806538	0.419408	0	0	0.0747091	-0.00777541	0.0165956	-0.572524	-0.259765	-0.19383	1.47432	2.20473	0	0	-0.249272	-0.186544	-0.0495285	1.92754	1.79525	0	0
